<svg xmlns="http://www.w3.org/2000/svg" width="64.26" height="64.26" viewBox="0 0 64.26 64.26"><g id="Layer_2" data-name="Layer 2"><g id="Layer_1-2" data-name="Layer 1"><g id="ns_faq"><rect width="64.26" height="64.26" style="fill:#dd7b19"/><path d="M52.27,39.28a13,13,0,0,0-7.14-11.59A17.73,17.73,0,0,1,27.69,45.13a13,13,0,0,0,18.2,5.34l6.32,1.74-1.74-6.32A12.94,12.94,0,0,0,52.27,39.28Z" style="fill:#fff"/><path d="M27.44,41.88a14.4,14.4,0,0,1-7.34-2l-.33-.2-6.33,1.75,1.75-6.32L15,34.78a14.44,14.44,0,1,1,12.44,7.1Zm-2.08-5.27h4.15V32.46H25.36Zm2.08-14.2a1.45,1.45,0,0,1,1.45,1.46,1.42,1.42,0,0,1-.47,1.07l-3.06,2.8V31.9h4.15V29.57L31.22,28a5.61,5.61,0,1,0-9.39-4.13v.89H26v-.89A1.46,1.46,0,0,1,27.44,22.41Z" style="fill:#fff"/></g></g></g></svg>